<svg id="svg" version="1.1" width="1000" height="1000" xmlns="http://www.w3.org/2000/svg" xmlns:xlink="http://www.w3.org/1999/xlink" style="display: block;"><g id="svgg"><path id="path0" d="" stroke="none" fill="#000000" fill-rule="evenodd"></path><path id="path1" d="" stroke="none" fill="#ffffff" fill-rule="evenodd"></path><path id="path2" d="M135.600 253.000 L 100.203 288.399 106.102 294.298 L 112.001 300.197 147.568 264.632 L 183.135 229.066 180.468 227.187 C 177.533 225.119,174.358 221.929,172.619 219.300 C 172.000 218.365,171.382 217.600,171.246 217.600 C 171.110 217.600,155.069 233.530,135.600 253.000 " stroke="none" fill="#c0392b" fill-rule="evenodd"></path><path id="path3" d="M172.460 219.100 C 174.277 221.759,177.627 225.209,179.888 226.749 C 181.380 227.765,181.493 227.804,180.403 226.926 C 177.363 224.476,175.019 222.086,173.315 219.700 C 171.233 216.785,170.551 216.306,172.460 219.100 " stroke="none" fill="#bf6961" fill-rule="evenodd"></path><path id="path4" d="" stroke="none" fill="#55aaaa" fill-rule="evenodd"></path><path id="path5" d="M183.000 0.263 C 163.597 1.404,142.850 6.751,117.600 17.117 C 85.366 30.351,50.573 60.426,30.970 92.000 C 28.990 95.190,26.693 98.880,25.865 100.200 C 23.250 104.374,17.492 116.346,14.707 123.400 C 2.093 155.354,-1.121 176.217,0.474 215.800 C 1.381 238.305,9.197 266.568,21.000 290.017 C 35.041 317.915,56.232 342.845,82.169 361.980 C 92.063 369.279,108.877 379.052,118.000 382.805 C 141.427 392.444,153.933 396.010,174.056 398.792 C 185.484 400.372,215.111 400.372,225.985 398.793 C 247.029 395.736,258.593 392.436,282.000 382.805 C 291.123 379.052,307.937 369.279,317.831 361.980 C 343.768 342.845,364.959 317.915,379.000 290.017 C 388.622 270.901,395.793 247.946,398.624 227.200 C 400.003 217.098,400.263 185.102,399.043 175.600 C 391.819 119.316,362.826 70.122,317.589 37.392 C 307.098 29.802,291.611 20.876,282.400 17.111 C 259.341 7.685,245.975 3.912,225.800 1.133 C 220.058 0.342,191.516 -0.238,183.000 0.263 M209.200 33.611 C 355.945 41.992,420.659 221.053,313.406 321.945 C 225.936 404.226,80.777 367.548,42.127 253.400 C 4.236 141.495,91.360 26.882,209.200 33.611 M199.300 83.476 C 199.685 83.576,200.315 83.576,200.700 83.476 C 201.085 83.375,200.770 83.293,200.000 83.293 C 199.230 83.293,198.915 83.375,199.300 83.476 M191.926 85.214 C 191.115 85.642,190.346 86.164,190.216 86.373 C 190.031 86.674,193.276 85.081,193.967 84.532 C 194.496 84.112,193.181 84.551,191.926 85.214 M206.033 84.532 C 206.726 85.083,209.969 86.674,209.782 86.371 C 209.535 85.971,206.640 84.400,206.149 84.400 C 205.994 84.400,205.942 84.460,206.033 84.532 M187.781 88.500 L 186.200 90.200 187.900 88.619 C 189.481 87.148,189.784 86.800,189.481 86.800 C 189.416 86.800,188.651 87.565,187.781 88.500 M211.800 88.400 C 212.659 89.280,213.452 90.000,213.562 90.000 C 213.672 90.000,213.059 89.280,212.200 88.400 C 211.341 87.520,210.548 86.800,210.438 86.800 C 210.328 86.800,210.941 87.520,211.800 88.400 M183.298 134.820 C 183.235 158.144,183.058 171.211,182.801 171.521 C 182.576 171.793,182.664 171.778,183.004 171.485 C 183.531 171.030,183.592 166.557,183.500 134.784 L 183.396 98.600 183.298 134.820 M216.498 134.851 C 216.406 168.967,216.441 171.134,217.100 171.651 C 217.720 172.137,217.743 172.127,217.302 171.562 C 216.915 171.065,216.781 162.869,216.700 134.762 L 216.596 98.600 216.498 134.851 M176.388 176.700 L 173.800 179.400 176.500 176.812 C 177.985 175.388,179.200 174.173,179.200 174.112 C 179.200 173.817,178.793 174.192,176.388 176.700 M223.200 176.600 C 224.617 178.030,225.867 179.200,225.977 179.200 C 226.087 179.200,225.017 178.030,223.600 176.600 C 222.183 175.170,220.933 174.000,220.823 174.000 C 220.713 174.000,221.783 175.170,223.200 176.600 M228.499 183.018 C 234.637 190.433,234.618 209.342,228.464 217.000 C 228.084 217.472,228.054 217.595,228.391 217.300 C 228.839 216.906,240.208 216.779,281.780 216.702 L 334.600 216.604 290.900 216.500 C 266.865 216.443,247.200 216.352,247.201 216.298 C 247.202 216.244,247.761 214.040,248.444 211.400 C 250.588 203.110,250.498 194.379,248.192 186.956 C 247.653 185.220,247.209 183.756,247.206 183.702 C 247.203 183.648,266.865 183.557,290.900 183.500 L 334.600 183.396 281.780 183.298 C 240.208 183.221,228.839 183.094,228.391 182.700 C 228.077 182.425,228.126 182.568,228.499 183.018 M191.900 185.029 C 190.349 185.870,190.525 186.161,192.100 185.359 C 193.608 184.593,193.875 184.394,193.367 184.416 C 193.165 184.425,192.505 184.701,191.900 185.029 M206.433 184.549 C 206.845 184.917,209.200 186.000,209.200 185.821 C 209.200 185.590,206.982 184.400,206.553 184.400 C 206.396 184.400,206.342 184.467,206.433 184.549 M186.313 189.900 C 185.707 190.595,184.480 192.793,184.923 192.390 C 185.283 192.062,187.191 189.200,187.050 189.200 C 186.981 189.200,186.649 189.515,186.313 189.900 M213.774 190.600 C 215.167 192.652,215.452 192.895,214.677 191.371 C 214.334 190.695,213.749 189.890,213.378 189.582 C 213.007 189.274,213.185 189.732,213.774 190.600 M188.093 211.825 C 188.914 212.702,190.174 213.738,190.893 214.127 C 192.156 214.811,192.166 214.810,191.200 214.117 C 190.650 213.723,189.390 212.687,188.400 211.816 L 186.600 210.231 188.093 211.825 M211.578 211.900 L 210.200 213.400 211.700 212.022 C 213.096 210.738,213.384 210.400,213.078 210.400 C 213.012 210.400,212.337 211.075,211.578 211.900 M223.188 223.500 L 220.600 226.200 223.300 223.612 C 224.785 222.188,226.000 220.973,226.000 220.912 C 226.000 220.617,225.593 220.992,223.188 223.500 " stroke="none" fill="#95a5a6" fill-rule="evenodd"></path><path id="path6" d="" stroke="none" fill="#00ffff" fill-rule="evenodd"></path><path id="path7" d="" stroke="none" fill="#80ffff" fill-rule="evenodd"></path><path id="path8" d="M190.640 33.649 C 66.782 40.080,-6.586 176.285,56.001 283.600 C 126.091 403.779,304.074 390.096,355.180 260.600 C 397.001 154.633,322.332 39.474,208.000 33.608 C 199.502 33.172,199.848 33.171,190.640 33.649 M202.800 83.614 C 210.025 84.748,215.386 90.135,216.423 97.303 C 216.621 98.677,216.788 115.835,216.792 135.434 L 216.800 171.067 218.959 172.554 C 221.897 174.577,224.720 177.345,226.988 180.426 L 228.882 183.000 282.741 183.211 C 342.793 183.446,338.063 183.206,342.664 186.260 C 352.239 192.616,352.239 207.384,342.664 213.740 C 338.063 216.794,342.793 216.554,282.741 216.789 L 228.882 217.000 227.086 219.400 C 217.147 232.681,198.993 237.194,185.200 229.814 L 183.400 228.851 147.700 264.524 L 112.001 300.197 106.102 294.298 L 100.203 288.399 135.776 252.824 L 171.349 217.249 169.900 214.125 C 167.354 208.636,167.000 206.912,167.000 200.000 C 167.000 188.043,172.008 178.536,181.700 172.091 L 183.200 171.094 183.208 135.447 C 183.212 115.841,183.379 98.677,183.577 97.303 C 184.730 89.336,190.949 83.880,199.600 83.250 C 199.930 83.226,201.370 83.390,202.800 83.614 M197.317 183.604 C 192.264 184.342,187.272 188.047,185.112 192.663 C 177.206 209.558,198.522 224.790,211.600 211.590 C 222.976 200.109,213.357 181.262,197.317 183.604 M0.000 213.133 C 0.000 215.325,0.162 216.800,0.402 216.800 C 0.770 216.800,0.528 210.076,0.144 209.633 C 0.065 209.542,0.000 211.117,0.000 213.133 M399.514 212.980 C 399.356 214.950,399.311 216.645,399.414 216.747 C 399.892 217.225,400.024 216.227,399.916 212.950 L 399.800 209.400 399.514 212.980 " stroke="none" fill="#34495e" fill-rule="evenodd"></path><path id="path9" d="M195.400 84.138 C 189.642 86.045,185.831 89.815,184.244 95.173 C 183.672 97.101,183.600 101.499,183.600 134.237 L 183.600 171.130 181.062 172.941 C 154.127 192.161,169.100 235.332,201.919 233.077 C 233.716 230.891,244.643 190.457,218.300 172.460 L 216.400 171.162 216.400 134.253 C 216.400 94.041,216.467 95.316,214.139 91.335 C 210.743 85.529,201.695 82.054,195.400 84.138 M204.425 183.833 C 216.746 186.635,220.985 202.668,211.826 211.826 C 202.137 221.515,185.810 216.187,183.479 202.577 C 181.397 190.424,191.937 180.993,204.425 183.833 M247.206 183.693 C 247.209 183.752,247.653 185.220,248.192 186.956 C 250.498 194.379,250.588 203.110,248.444 211.400 C 247.761 214.040,247.202 216.248,247.201 216.307 C 247.200 216.365,267.495 216.365,292.300 216.307 L 337.400 216.200 340.025 214.956 C 352.844 208.881,352.844 191.119,340.025 185.044 L 337.400 183.800 292.300 183.693 C 267.495 183.635,247.203 183.635,247.206 183.693 " stroke="none" fill="#bdc3c7" fill-rule="evenodd"></path></g></svg>